<?xml version="1.0" encoding="UTF-8"?>
<svg id="Layer_2" data-name="Layer 2" xmlns="http://www.w3.org/2000/svg" viewBox="0 0 399.58 156.15">
  <defs>
    <style>
      .cls-1, .cls-2 {
        stroke-linejoin: round;
      }

      .cls-1, .cls-2, .cls-3 {
        stroke-linecap: round;
      }

      .cls-1, .cls-2, .cls-3, .cls-4, .cls-5, .cls-6 {
        stroke: #e56031;
      }

      .cls-1, .cls-6 {
        fill: #fff;
      }

      .cls-2, .cls-3 {
        fill: none;
      }

      .cls-7, .cls-8, .cls-4, .cls-9 {
        fill: #043730;
      }

      .cls-10, .cls-5, .cls-11 {
        fill: #e56031;
      }

      .cls-3, .cls-4, .cls-9, .cls-5, .cls-6 {
        stroke-miterlimit: 10;
      }

      .cls-8 {
        font-family: FredokaOne-Regular, 'Fredoka One';
        font-size: 48px;
      }

      .cls-9 {
        stroke: #fff;
      }

      .cls-11 {
        font-family: Baloo2-SemiBold, 'Baloo 2';
        font-size: 9.52px;
        font-weight: 600;
      }
    </style>
  </defs>
  <g id="TEXTS">
    <g>
      <g>
        <g>
          <path class="cls-10" d="M46.23,47.64c5.32-5.32,16.85-17.07,32.37-11.31,11.84,4.4,36.8,14.85,53.2,19.73l3.85-.73C127.19,26.65,100.67,5.7,69.24,5.7,31,5.7,0,36.7,0,74.94s31,69.24,69.24,69.24c25.92,0,48.51-14.26,60.37-35.35-22.06-.35-27.45-17.21-32.62-13.97-1.79,1.12-5.75,3.65-10.44,6.09l5.32,6.35c10.51,13.13-2.45,21.71-2.45,21.71l-3.29-3.7c-2.06,5.29-6.64,8.34-6.64,8.34l-5.25-5.9c-1.41,1.39-2.53,2.13-2.53,2.13l-15.96-17.96,3.99-15.52s.33,.13,1.21,.47c3.58-10.66,22.28-26.15,27.83-30.57l-1.78-.94h-21.5s-1.11,4.21-10.42,10.42c11.08,30.37-12.41,35.25-12.41,35.25,0,0-7.5-26.78-11.53-36.8-3.93-9.77,9.75-21.28,15.07-26.6Z"/>
          <path class="cls-5" d="M80.34,103.88c-.45,.19-.89,.37-1.34,.54l.84,1.01,.5-1.55Z"/>
        </g>
        <path class="cls-9" d="M46.34,87.43c11.31,17.96,21.61,7.65,21.61,7.65l12.63-36.25-20.62-2-14.96,24.27,1.33,6.32Z"/>
        <path class="cls-1" d="M142.67,54.01l-10.87,2.05c-16.4-4.88-41.36-15.33-53.2-19.73-15.52-5.76-27.04,5.98-32.37,11.31-5.32,5.32-19.01,16.83-15.07,26.6,4.03,10.02,11.53,36.8,11.53,36.8,0,0,23.5-4.88,12.41-35.25,9.31-6.21,10.42-10.42,10.42-10.42h21.5l58.5,31.06"/>
        <path class="cls-6" d="M76.83,114.83l12.61,14.18s12.96-8.58,2.45-21.71l-9.14-10.91-5.92,18.44Z"/>
        <path class="cls-10" d="M73.5,121.09l4.9,5.93c2.04,2.48,5.71,2.82,8.18,.78,2.47-2.04,2.82-5.71,.78-8.18l-4.9-5.93-8.96,7.41Z"/>
        <path class="cls-6" d="M64.85,117.17l14.65,16.48s15.06-9.97,2.85-25.23l-10.62-12.68-6.87,21.43Z"/>
        <path class="cls-10" d="M63.99,122.8l4.9,5.93c2.04,2.47,5.71,2.82,8.18,.78,2.47-2.04,2.82-5.71,.78-8.18l-4.9-5.93-8.96,7.41Z"/>
        <path class="cls-6" d="M55.77,111.93l15.96,17.96s16.4-10.86,3.1-27.49c-12.19-4.88-15.07-5.99-15.07-5.99l-3.99,15.52Z"/>
        <path class="cls-10" d="M56,118.99l4.9,5.93c2.04,2.48,5.71,2.82,8.18,.78,2.47-2.04,2.82-5.71,.78-8.18l-4.9-5.93-8.96,7.41Z"/>
        <path class="cls-4" d="M75.94,104.17s24.83,17.51,56.53,4.65c31.7-12.86-27.93-29.04-27.93-29.04l-22.39,11.75-6.21,12.64Z"/>
        <g>
          <path class="cls-7" d="M96.97,24.65l-60.96,111.04c4.01,2.2,8.26,4.01,12.7,5.39L105.03,38.5"/>
          <polyline class="cls-7" points="105.03 38.5 118.05 14.78 106 8.2 96.97 24.65"/>
          <path class="cls-7" d="M34.24,140.95l-.96,15.2,12.86-9.66c-4.17-1.47-8.15-3.34-11.9-5.54Z"/>
        </g>
        <path class="cls-1" d="M161.51,95.96c-13.3,2.66-22.61,12.42-29.93,12.86-23.72,.66-29.26-17.29-34.58-13.97-5.32,3.33-29.71,19.06-35.91,8.2-6.21-10.86,29.27-37.97,29.27-37.97"/>
        <path class="cls-10" d="M72.99,88.68l-6.36,4.33c-2.66,1.8-3.34,5.42-1.54,8.08,1.8,2.65,5.42,3.34,8.08,1.54l6.36-4.33-6.54-9.61Z"/>
        <path class="cls-10" d="M32.7,94.54l1.97,7.44c.82,3.1,4.01,4.95,7.11,4.13,3.1-.82,4.95-4.01,4.13-7.11l-1.97-7.44-11.24,2.98Z"/>
        <path class="cls-2" d="M43.56,73.04s5.01,3.04,11.54,2.76"/>
        <path class="cls-2" d="M61.63,59.53s1.12,3.7,3.89,5.84"/>
        <path class="cls-10" d="M120.15,12l.69-1.24c1.94-3.5,.67-7.91-2.83-9.85-3.5-1.94-7.91-.67-9.85,2.83l-.69,1.24,12.68,7.03Z"/>
        <path class="cls-3" d="M90.36,65.09s6.45-4.18,14.78-4.02"/>
        <line class="cls-3" x1="73.89" y1="65.62" x2="59.51" y2="92.03"/>
      </g>
      <text class="cls-8" transform="translate(142.93 91.03)"><tspan x="0" y="0">EDUAID-SL</tspan></text>
      <text class="cls-11" transform="translate(148.36 111.59)"><tspan x="0" y="0">Providing Educational First Aid</tspan></text>
    </g>
  </g>
</svg>